<mxfile host="app.diagrams.net" modified="2022-07-30T12:51:26.019Z" agent="5.0 (Windows NT 10.0; Win64; x64) AppleWebKit/537.36 (KHTML, like Gecko) Chrome/102.0.5005.134 YaBrowser/22.7.1.806 Yowser/2.5 Safari/537.36" etag="WZQlNEro-38DwVfXD7qS" version="20.2.2" type="github">
  <diagram id="29SK0FX5hBV9BD0234FJ" name="Страница 1">
    <mxGraphModel dx="973" dy="615" grid="1" gridSize="10" guides="1" tooltips="1" connect="1" arrows="1" fold="1" page="1" pageScale="1" pageWidth="827" pageHeight="1169" math="0" shadow="0">
      <root>
        <mxCell id="0" />
        <mxCell id="1" parent="0" />
        <mxCell id="2Amy6j9UUJ_JXu63c0p4-9" style="edgeStyle=orthogonalEdgeStyle;rounded=0;orthogonalLoop=1;jettySize=auto;html=1;" edge="1" parent="1" source="2Amy6j9UUJ_JXu63c0p4-1" target="2Amy6j9UUJ_JXu63c0p4-2">
          <mxGeometry relative="1" as="geometry" />
        </mxCell>
        <mxCell id="2Amy6j9UUJ_JXu63c0p4-1" value="Начало" style="ellipse;whiteSpace=wrap;html=1;" vertex="1" parent="1">
          <mxGeometry x="360" y="150" width="80" height="80" as="geometry" />
        </mxCell>
        <mxCell id="2Amy6j9UUJ_JXu63c0p4-10" style="edgeStyle=orthogonalEdgeStyle;rounded=0;orthogonalLoop=1;jettySize=auto;html=1;" edge="1" parent="1" source="2Amy6j9UUJ_JXu63c0p4-2" target="2Amy6j9UUJ_JXu63c0p4-3">
          <mxGeometry relative="1" as="geometry" />
        </mxCell>
        <mxCell id="2Amy6j9UUJ_JXu63c0p4-2" value="Объявление A,B,C" style="rounded=1;whiteSpace=wrap;html=1;" vertex="1" parent="1">
          <mxGeometry x="340" y="260" width="120" height="60" as="geometry" />
        </mxCell>
        <mxCell id="2Amy6j9UUJ_JXu63c0p4-7" style="edgeStyle=orthogonalEdgeStyle;rounded=0;orthogonalLoop=1;jettySize=auto;html=1;entryX=0.5;entryY=0;entryDx=0;entryDy=0;" edge="1" parent="1" source="2Amy6j9UUJ_JXu63c0p4-3" target="2Amy6j9UUJ_JXu63c0p4-4">
          <mxGeometry relative="1" as="geometry" />
        </mxCell>
        <mxCell id="2Amy6j9UUJ_JXu63c0p4-8" style="edgeStyle=orthogonalEdgeStyle;rounded=0;orthogonalLoop=1;jettySize=auto;html=1;" edge="1" parent="1" source="2Amy6j9UUJ_JXu63c0p4-3" target="2Amy6j9UUJ_JXu63c0p4-5">
          <mxGeometry relative="1" as="geometry" />
        </mxCell>
        <mxCell id="2Amy6j9UUJ_JXu63c0p4-3" value="A &amp;gt; B" style="rhombus;whiteSpace=wrap;html=1;" vertex="1" parent="1">
          <mxGeometry x="360" y="360" width="80" height="80" as="geometry" />
        </mxCell>
        <mxCell id="2Amy6j9UUJ_JXu63c0p4-15" style="edgeStyle=orthogonalEdgeStyle;rounded=0;orthogonalLoop=1;jettySize=auto;html=1;" edge="1" parent="1" source="2Amy6j9UUJ_JXu63c0p4-4" target="2Amy6j9UUJ_JXu63c0p4-12">
          <mxGeometry relative="1" as="geometry" />
        </mxCell>
        <mxCell id="2Amy6j9UUJ_JXu63c0p4-16" style="edgeStyle=orthogonalEdgeStyle;rounded=0;orthogonalLoop=1;jettySize=auto;html=1;entryX=0.5;entryY=0;entryDx=0;entryDy=0;" edge="1" parent="1" source="2Amy6j9UUJ_JXu63c0p4-4" target="2Amy6j9UUJ_JXu63c0p4-11">
          <mxGeometry relative="1" as="geometry" />
        </mxCell>
        <mxCell id="2Amy6j9UUJ_JXu63c0p4-4" value="A &amp;gt; C" style="rhombus;whiteSpace=wrap;html=1;" vertex="1" parent="1">
          <mxGeometry x="160" y="450" width="80" height="80" as="geometry" />
        </mxCell>
        <mxCell id="2Amy6j9UUJ_JXu63c0p4-17" style="edgeStyle=orthogonalEdgeStyle;rounded=0;orthogonalLoop=1;jettySize=auto;html=1;" edge="1" parent="1" source="2Amy6j9UUJ_JXu63c0p4-5" target="2Amy6j9UUJ_JXu63c0p4-13">
          <mxGeometry relative="1" as="geometry" />
        </mxCell>
        <mxCell id="2Amy6j9UUJ_JXu63c0p4-18" style="edgeStyle=orthogonalEdgeStyle;rounded=0;orthogonalLoop=1;jettySize=auto;html=1;" edge="1" parent="1" source="2Amy6j9UUJ_JXu63c0p4-5" target="2Amy6j9UUJ_JXu63c0p4-14">
          <mxGeometry relative="1" as="geometry" />
        </mxCell>
        <mxCell id="2Amy6j9UUJ_JXu63c0p4-5" value="B &amp;gt; C" style="rhombus;whiteSpace=wrap;html=1;" vertex="1" parent="1">
          <mxGeometry x="560" y="450" width="80" height="80" as="geometry" />
        </mxCell>
        <mxCell id="2Amy6j9UUJ_JXu63c0p4-20" style="edgeStyle=orthogonalEdgeStyle;rounded=0;orthogonalLoop=1;jettySize=auto;html=1;entryX=0.5;entryY=0;entryDx=0;entryDy=0;exitX=0.5;exitY=1;exitDx=0;exitDy=0;" edge="1" parent="1" source="2Amy6j9UUJ_JXu63c0p4-11" target="2Amy6j9UUJ_JXu63c0p4-19">
          <mxGeometry relative="1" as="geometry" />
        </mxCell>
        <mxCell id="2Amy6j9UUJ_JXu63c0p4-11" value="Напечатать A" style="rounded=1;whiteSpace=wrap;html=1;" vertex="1" parent="1">
          <mxGeometry x="20" y="555" width="120" height="60" as="geometry" />
        </mxCell>
        <mxCell id="2Amy6j9UUJ_JXu63c0p4-21" style="edgeStyle=orthogonalEdgeStyle;rounded=0;orthogonalLoop=1;jettySize=auto;html=1;" edge="1" parent="1" source="2Amy6j9UUJ_JXu63c0p4-12" target="2Amy6j9UUJ_JXu63c0p4-19">
          <mxGeometry relative="1" as="geometry" />
        </mxCell>
        <mxCell id="2Amy6j9UUJ_JXu63c0p4-12" value="Напечатать C" style="rounded=1;whiteSpace=wrap;html=1;" vertex="1" parent="1">
          <mxGeometry x="260" y="555" width="120" height="60" as="geometry" />
        </mxCell>
        <mxCell id="2Amy6j9UUJ_JXu63c0p4-22" style="edgeStyle=orthogonalEdgeStyle;rounded=0;orthogonalLoop=1;jettySize=auto;html=1;" edge="1" parent="1" source="2Amy6j9UUJ_JXu63c0p4-13" target="2Amy6j9UUJ_JXu63c0p4-19">
          <mxGeometry relative="1" as="geometry" />
        </mxCell>
        <mxCell id="2Amy6j9UUJ_JXu63c0p4-13" value="Напечатать B" style="rounded=1;whiteSpace=wrap;html=1;" vertex="1" parent="1">
          <mxGeometry x="420" y="555" width="120" height="60" as="geometry" />
        </mxCell>
        <mxCell id="2Amy6j9UUJ_JXu63c0p4-23" style="edgeStyle=orthogonalEdgeStyle;rounded=0;orthogonalLoop=1;jettySize=auto;html=1;exitX=0.5;exitY=1;exitDx=0;exitDy=0;" edge="1" parent="1" source="2Amy6j9UUJ_JXu63c0p4-14" target="2Amy6j9UUJ_JXu63c0p4-19">
          <mxGeometry relative="1" as="geometry" />
        </mxCell>
        <mxCell id="2Amy6j9UUJ_JXu63c0p4-14" value="Напечатать C" style="rounded=1;whiteSpace=wrap;html=1;" vertex="1" parent="1">
          <mxGeometry x="660" y="555" width="120" height="60" as="geometry" />
        </mxCell>
        <mxCell id="2Amy6j9UUJ_JXu63c0p4-19" value="Конец" style="ellipse;whiteSpace=wrap;html=1;" vertex="1" parent="1">
          <mxGeometry x="360" y="710" width="80" height="80" as="geometry" />
        </mxCell>
      </root>
    </mxGraphModel>
  </diagram>
</mxfile>
